<svg width="36" height="32" viewBox="0 0 36 32" fill="none" xmlns="http://www.w3.org/2000/svg">
<rect x="6" y="20" width="7.875" height="7.87842" rx="0.870968" fill="white"/>
<rect x="6" y="20" width="7.875" height="7.87842" rx="0.870968" fill="#A13320"/>
<rect x="22" y="4" width="7.875" height="7.87842" rx="0.870968" fill="white"/>
<rect x="22" y="4" width="7.875" height="7.87842" rx="0.870968" fill="#A13320"/>
<rect x="6" y="4" width="7.875" height="7.87842" rx="0.870968" fill="white"/>
<rect x="6" y="4" width="7.875" height="7.87842" rx="0.870968" fill="#A13320"/>
<path d="M22 20.871C22 20.3899 22.3899 20 22.871 20H29.004C29.4851 20 29.875 20.3899 29.875 20.871V27.0075C29.875 27.4885 29.4851 27.8784 29.004 27.8784H22.871C22.3899 27.8784 22 27.4885 22 27.0075V20.871Z" fill="white"/>
<path d="M22 20.871C22 20.3899 22.3899 20 22.871 20H29.004C29.4851 20 29.875 20.3899 29.875 20.871V27.0075C29.875 27.4885 29.4851 27.8784 29.004 27.8784H22.871C22.3899 27.8784 22 27.4885 22 27.0075V20.871Z" fill="#A13320"/>
</svg>
