<svg width="36" height="32" viewBox="0 0 36 32" fill="none" xmlns="http://www.w3.org/2000/svg">
<rect x="3" y="18" width="7.875" height="7.87842" rx="0.870968" fill="white"/>
<rect x="3" y="18" width="7.875" height="7.87842" rx="0.870968" fill="#A13320"/>
<rect x="14" y="18" width="7.875" height="7.87842" rx="0.870968" fill="white"/>
<rect x="14" y="18" width="7.875" height="7.87842" rx="0.870968" fill="#A13320"/>
<rect x="8" y="6" width="7.875" height="7.87842" rx="0.870968" fill="white"/>
<rect x="8" y="6" width="7.875" height="7.87842" rx="0.870968" fill="#A13320"/>
<rect x="20" y="6" width="7.875" height="7.87842" rx="0.870968" fill="white"/>
<rect x="20" y="6" width="7.875" height="7.87842" rx="0.870968" fill="#A13320"/>
<path d="M25 18.871C25 18.3899 25.3899 18 25.871 18H32.004C32.4851 18 32.875 18.3899 32.875 18.871V25.0075C32.875 25.4885 32.4851 25.8784 32.004 25.8784H25.871C25.3899 25.8784 25 25.4885 25 25.0075V18.871Z" fill="white"/>
<path d="M25 18.871C25 18.3899 25.3899 18 25.871 18H32.004C32.4851 18 32.875 18.3899 32.875 18.871V25.0075C32.875 25.4885 32.4851 25.8784 32.004 25.8784H25.871C25.3899 25.8784 25 25.4885 25 25.0075V18.871Z" fill="#A13320"/>
</svg>
