<svg width="101" height="1080" viewBox="0 0 101 1080" fill="none" xmlns="http://www.w3.org/2000/svg">
<rect x="96.9236" y="51.4452" width="93.481" height="93.481" rx="7.60892" transform="rotate(90 96.9236 51.4452)" stroke="#A13320" stroke-width="6.52193"/>
<path d="M74.0969 129.708C69.8946 129.708 66.488 126.302 66.488 122.099C66.488 117.897 69.8946 114.49 74.0969 114.49C78.2992 114.49 81.7058 117.897 81.7058 122.099C81.7058 126.302 78.2992 129.708 74.0969 129.708Z" fill="#A13320" stroke="#A13320" stroke-width="6.52193"/>
<path d="M26.2698 81.8808C22.0675 81.8808 18.6608 78.4742 18.6608 74.2719C18.6608 70.0696 22.0675 66.663 26.2698 66.663C30.4721 66.663 33.8787 70.0696 33.8787 74.2719C33.8787 78.4742 30.4721 81.8808 26.2698 81.8808Z" fill="#A13320" stroke="#A13320" stroke-width="6.52193"/>
<path d="M74.0969 81.8808C69.8946 81.8808 66.488 78.4742 66.488 74.2719C66.488 70.0696 69.8946 66.663 74.0969 66.663C78.2992 66.663 81.7058 70.0696 81.7058 74.2719C81.7058 78.4742 78.2992 81.8808 74.0969 81.8808Z" fill="#A13320" stroke="#A13320" stroke-width="6.52193"/>
<path d="M26.2698 129.708C22.0675 129.708 18.6608 126.302 18.6608 122.099C18.6608 117.897 22.0675 114.491 26.2698 114.491C30.4721 114.491 33.8787 117.897 33.8787 122.099C33.8787 126.302 30.4721 129.708 26.2698 129.708Z" fill="#A13320" stroke="#A13320" stroke-width="6.52193"/>
<rect x="96.9236" y="-65.9495" width="93.481" height="93.481" rx="7.60892" transform="rotate(90 96.9236 -65.9495)" stroke="#A13320" stroke-width="6.52193"/>
<path d="M26.2698 12.3136C22.0675 12.3136 18.6608 8.90701 18.6608 4.70472C18.6608 0.502432 22.0675 -2.9042 26.2698 -2.9042C30.4721 -2.9042 33.8787 0.502432 33.8787 4.70472C33.8787 8.90701 30.4721 12.3136 26.2698 12.3136Z" fill="#A13320" stroke="#A13320" stroke-width="6.52193"/>
<rect x="96.9236" y="286.235" width="93.481" height="93.481" rx="7.60892" transform="rotate(90 96.9236 286.235)" stroke="#A13320" stroke-width="6.52193"/>
<path d="M74.0969 364.498C69.8946 364.498 66.488 361.091 66.488 356.889C66.488 352.687 69.8946 349.28 74.0969 349.28C78.2992 349.28 81.7058 352.687 81.7058 356.889C81.7058 361.091 78.2992 364.498 74.0969 364.498Z" fill="#A13320" stroke="#A13320" stroke-width="6.52193"/>
<path d="M26.2698 316.67C22.0675 316.67 18.6608 313.264 18.6608 309.061C18.6608 304.859 22.0675 301.452 26.2698 301.452C30.4721 301.452 33.8787 304.859 33.8787 309.061C33.8787 313.264 30.4721 316.67 26.2698 316.67Z" fill="#A13320" stroke="#A13320" stroke-width="6.52193"/>
<path d="M74.0969 316.67C69.8946 316.67 66.488 313.264 66.488 309.061C66.488 304.859 69.8946 301.452 74.0969 301.452C78.2992 301.452 81.7058 304.859 81.7058 309.061C81.7058 313.264 78.2992 316.67 74.0969 316.67Z" fill="#A13320" stroke="#A13320" stroke-width="6.52193"/>
<path d="M26.2698 364.498C22.0675 364.498 18.6608 361.091 18.6608 356.889C18.6608 352.687 22.0675 349.28 26.2698 349.28C30.4721 349.28 33.8787 352.687 33.8787 356.889C33.8787 361.091 30.4721 364.498 26.2698 364.498Z" fill="#A13320" stroke="#A13320" stroke-width="6.52193"/>
<path d="M50.1829 340.584C45.9806 340.584 42.5739 337.177 42.5739 332.975C42.5739 328.773 45.9806 325.366 50.1829 325.366C54.3851 325.366 57.7918 328.773 57.7918 332.975C57.7918 337.177 54.3851 340.584 50.1829 340.584Z" fill="#A13320" stroke="#A13320" stroke-width="6.52193"/>
<rect x="96.9236" y="168.84" width="93.481" height="93.481" rx="7.60892" transform="rotate(90 96.9236 168.84)" stroke="#A13320" stroke-width="6.52193"/>
<path d="M28.4436 223.189C24.2413 223.189 20.8347 219.783 20.8347 215.58C20.8347 211.378 24.2413 207.971 28.4436 207.971C32.6459 207.971 36.0525 211.378 36.0525 215.58C36.0525 219.783 32.6459 223.189 28.4436 223.189Z" fill="#A13320" stroke="#A13320" stroke-width="6.52193"/>
<path d="M28.4436 194.928C24.2413 194.928 20.8347 191.521 20.8347 187.319C20.8347 183.116 24.2413 179.71 28.4436 179.71C32.6459 179.71 36.0525 183.116 36.0525 187.319C36.0525 191.521 32.6459 194.928 28.4436 194.928Z" fill="#A13320" stroke="#A13320" stroke-width="6.52193"/>
<path d="M28.4436 251.451C24.2413 251.451 20.8347 248.044 20.8347 243.842C20.8347 239.64 24.2413 236.233 28.4436 236.233C32.6459 236.233 36.0525 239.64 36.0525 243.842C36.0525 248.044 32.6459 251.451 28.4436 251.451Z" fill="#A13320" stroke="#A13320" stroke-width="6.52193"/>
<path d="M71.9231 223.189C67.7208 223.189 64.3142 219.783 64.3142 215.58C64.3142 211.378 67.7208 207.971 71.9231 207.971C76.1254 207.971 79.532 211.378 79.532 215.58C79.532 219.783 76.1254 223.189 71.9231 223.189Z" fill="#A13320" stroke="#A13320" stroke-width="6.52193"/>
<path d="M71.9231 194.928C67.7208 194.928 64.3142 191.521 64.3142 187.319C64.3142 183.116 67.7208 179.71 71.9231 179.71C76.1254 179.71 79.532 183.116 79.532 187.319C79.532 191.521 76.1254 194.928 71.9231 194.928Z" fill="#A13320" stroke="#A13320" stroke-width="6.52193"/>
<path d="M71.9231 251.451C67.7208 251.451 64.3142 248.044 64.3142 243.842C64.3142 239.64 67.7208 236.233 71.9231 236.233C76.1254 236.233 79.532 239.64 79.532 243.842C79.532 248.044 76.1254 251.451 71.9231 251.451Z" fill="#A13320" stroke="#A13320" stroke-width="6.52193"/>
<rect x="96.9236" y="520.632" width="93.481" height="93.481" rx="7.60892" transform="rotate(90 96.9236 520.632)" stroke="#A13320" stroke-width="6.52193"/>
<circle cx="50.1829" cy="567.373" r="7.60892" transform="rotate(90 50.1829 567.373)" fill="#A13320" stroke="#A13320" stroke-width="6.52193"/>
<rect x="96.9236" y="755.422" width="93.481" height="93.481" rx="7.60892" transform="rotate(90 96.9236 755.422)" stroke="#A13320" stroke-width="6.52193"/>
<path d="M74.0969 833.685C69.8946 833.685 66.488 830.278 66.488 826.076C66.488 821.874 69.8946 818.467 74.0969 818.467C78.2992 818.467 81.7058 821.874 81.7058 826.076C81.7058 830.278 78.2992 833.685 74.0969 833.685Z" fill="#A13320" stroke="#A13320" stroke-width="6.52193"/>
<path d="M26.2698 785.857C22.0675 785.857 18.6608 782.451 18.6608 778.248C18.6608 774.046 22.0675 770.639 26.2698 770.639C30.4721 770.639 33.8787 774.046 33.8787 778.248C33.8787 782.451 30.4721 785.857 26.2698 785.857Z" fill="#A13320" stroke="#A13320" stroke-width="6.52193"/>
<path d="M74.0969 785.857C69.8946 785.857 66.488 782.451 66.488 778.248C66.488 774.046 69.8946 770.639 74.0969 770.639C78.2992 770.639 81.7058 774.046 81.7058 778.248C81.7058 782.451 78.2992 785.857 74.0969 785.857Z" fill="#A13320" stroke="#A13320" stroke-width="6.52193"/>
<path d="M26.2698 833.685C22.0675 833.685 18.6608 830.278 18.6608 826.076C18.6608 821.874 22.0675 818.467 26.2698 818.467C30.4721 818.467 33.8787 821.874 33.8787 826.076C33.8787 830.278 30.4721 833.685 26.2698 833.685Z" fill="#A13320" stroke="#A13320" stroke-width="6.52193"/>
<rect x="96.9236" y="638.027" width="93.481" height="93.481" rx="7.60892" transform="rotate(90 96.9236 638.027)" stroke="#A13320" stroke-width="6.52193"/>
<path d="M74.0969 668.463C69.8946 668.463 66.488 665.056 66.488 660.854C66.488 656.651 69.8946 653.245 74.0969 653.245C78.2992 653.245 81.7058 656.651 81.7058 660.854C81.7058 665.056 78.2992 668.463 74.0969 668.463Z" fill="#A13320" stroke="#A13320" stroke-width="6.52193"/>
<path d="M26.2698 716.29C22.0675 716.29 18.6608 712.883 18.6608 708.681C18.6608 704.479 22.0675 701.072 26.2698 701.072C30.4721 701.072 33.8787 704.479 33.8787 708.681C33.8787 712.883 30.4721 716.29 26.2698 716.29Z" fill="#A13320" stroke="#A13320" stroke-width="6.52193"/>
<rect x="96.9236" y="872.816" width="93.481" height="93.481" rx="7.60892" transform="rotate(90 96.9236 872.816)" stroke="#A13320" stroke-width="6.52193"/>
<path d="M50.1829 927.166C45.9806 927.166 42.5739 923.759 42.5739 919.557C42.5739 915.355 45.9806 911.948 50.1829 911.948C54.3851 911.948 57.7918 915.355 57.7918 919.557C57.7918 923.759 54.3851 927.166 50.1829 927.166Z" fill="#A13320" stroke="#A13320" stroke-width="6.52193"/>
<path d="M74.0969 903.252C69.8946 903.252 66.488 899.845 66.488 895.643C66.488 891.441 69.8946 888.034 74.0969 888.034C78.2992 888.034 81.7058 891.441 81.7058 895.643C81.7058 899.845 78.2992 903.252 74.0969 903.252Z" fill="#A13320" stroke="#A13320" stroke-width="6.52193"/>
<path d="M26.2698 951.079C22.0675 951.079 18.6608 947.673 18.6608 943.471C18.6608 939.268 22.0675 935.862 26.2698 935.862C30.4721 935.862 33.8787 939.268 33.8787 943.471C33.8787 947.673 30.4721 951.079 26.2698 951.079Z" fill="#A13320" stroke="#A13320" stroke-width="6.52193"/>
<rect x="96.9236" y="990.211" width="93.481" height="93.481" rx="7.60892" transform="rotate(90 96.9236 990.211)" stroke="#A13320" stroke-width="6.52193"/>
<path d="M74.0969 1068.47C69.8946 1068.47 66.488 1065.07 66.488 1060.87C66.488 1056.66 69.8946 1053.26 74.0969 1053.26C78.2992 1053.26 81.7058 1056.66 81.7058 1060.87C81.7058 1065.07 78.2992 1068.47 74.0969 1068.47Z" fill="#A13320" stroke="#A13320" stroke-width="6.52193"/>
<path d="M26.2698 1020.65C22.0675 1020.65 18.6608 1017.24 18.6608 1013.04C18.6608 1008.84 22.0675 1005.43 26.2698 1005.43C30.4721 1005.43 33.8787 1008.84 33.8787 1013.04C33.8787 1017.24 30.4721 1020.65 26.2698 1020.65Z" fill="#A13320" stroke="#A13320" stroke-width="6.52193"/>
<path d="M74.0969 1020.65C69.8946 1020.65 66.488 1017.24 66.488 1013.04C66.488 1008.84 69.8946 1005.43 74.0969 1005.43C78.2992 1005.43 81.7058 1008.84 81.7058 1013.04C81.7058 1017.24 78.2992 1020.65 74.0969 1020.65Z" fill="#A13320" stroke="#A13320" stroke-width="6.52193"/>
<path d="M26.2698 1068.47C22.0675 1068.47 18.6608 1065.07 18.6608 1060.87C18.6608 1056.66 22.0675 1053.26 26.2698 1053.26C30.4721 1053.26 33.8787 1056.66 33.8787 1060.87C33.8787 1065.07 30.4721 1068.47 26.2698 1068.47Z" fill="#A13320" stroke="#A13320" stroke-width="6.52193"/>
<path d="M50.1829 1044.56C45.9806 1044.56 42.5739 1041.15 42.5739 1036.95C42.5739 1032.75 45.9806 1029.34 50.1829 1029.34C54.3851 1029.34 57.7918 1032.75 57.7918 1036.95C57.7918 1041.15 54.3851 1044.56 50.1829 1044.56Z" fill="#A13320" stroke="#A13320" stroke-width="6.52193"/>
<rect x="96.9236" y="403.238" width="93.481" height="93.481" rx="7.60892" transform="rotate(90 96.9236 403.238)" stroke="#A13320" stroke-width="6.52193"/>
<path d="M28.4436 457.587C24.2413 457.587 20.8347 454.18 20.8347 449.978C20.8347 445.776 24.2413 442.369 28.4436 442.369C32.6459 442.369 36.0525 445.776 36.0525 449.978C36.0525 454.18 32.6459 457.587 28.4436 457.587Z" fill="#A13320" stroke="#A13320" stroke-width="6.52193"/>
<path d="M28.4436 429.325C24.2413 429.325 20.8347 425.918 20.8347 421.716C20.8347 417.514 24.2413 414.107 28.4436 414.107C32.6459 414.107 36.0525 417.514 36.0525 421.716C36.0525 425.918 32.6459 429.325 28.4436 429.325Z" fill="#A13320" stroke="#A13320" stroke-width="6.52193"/>
<path d="M28.4436 485.849C24.2413 485.849 20.8347 482.442 20.8347 478.24C20.8347 474.037 24.2413 470.631 28.4436 470.631C32.6459 470.631 36.0525 474.037 36.0525 478.24C36.0525 482.442 32.6459 485.849 28.4436 485.849Z" fill="#A13320" stroke="#A13320" stroke-width="6.52193"/>
<path d="M71.9231 457.587C67.7208 457.587 64.3142 454.18 64.3142 449.978C64.3142 445.776 67.7208 442.369 71.9231 442.369C76.1254 442.369 79.532 445.776 79.532 449.978C79.532 454.18 76.1254 457.587 71.9231 457.587Z" fill="#A13320" stroke="#A13320" stroke-width="6.52193"/>
<path d="M71.9231 429.325C67.7208 429.325 64.3142 425.919 64.3142 421.716C64.3142 417.514 67.7208 414.107 71.9231 414.107C76.1254 414.107 79.532 417.514 79.532 421.716C79.532 425.919 76.1254 429.325 71.9231 429.325Z" fill="#A13320" stroke="#A13320" stroke-width="6.52193"/>
<path d="M71.9231 485.849C67.7208 485.849 64.3142 482.442 64.3142 478.24C64.3142 474.037 67.7208 470.631 71.9231 470.631C76.1254 470.631 79.532 474.037 79.532 478.24C79.532 482.442 76.1254 485.849 71.9231 485.849Z" fill="#A13320" stroke="#A13320" stroke-width="6.52193"/>
</svg>
