<svg width="889" height="733" viewBox="0 0 889 733" fill="none" xmlns="http://www.w3.org/2000/svg">
<path d="M165.382 501.305L149.46 642.735L111.288 653.462L127.359 510.711L29.1867 387.347L66.6715 377.548L165.382 501.305Z" fill="#CE3E1E"/>
<path d="M192.4 494.161L176.576 634.715L138.404 645.442L154.376 503.567L56.2042 380.203L93.6891 370.405L192.4 494.161Z" fill="#D86F1F"/>
<path d="M218.598 486.338L202.751 627.103L165.27 637.908L181.188 496.513L83.0158 373.149L120.501 363.35L218.598 486.338Z" fill="#D78A19"/>
<path d="M401.125 449.425L368.972 458.932L366.618 450.97C362.361 460.22 352.73 467.064 337.726 471.5C320.986 476.45 305.354 474.634 290.83 466.053C276.305 457.473 266.508 444.608 261.438 427.461C256.398 410.415 257.741 394.312 265.468 379.152C273.165 363.89 285.179 353.845 301.51 349.016C316.31 344.64 328.129 345.197 336.967 350.686L334.568 342.572L366.72 333.065L401.125 449.425ZM351.77 400.752C349.386 392.688 344.506 386.694 337.13 382.771C329.826 378.714 322.142 377.879 314.079 380.263C306.015 382.647 299.971 387.542 295.945 394.948C291.991 402.222 291.206 409.89 293.59 417.954C295.974 426.018 300.818 432.077 308.122 436.133C315.498 440.057 323.218 440.827 331.281 438.443C339.345 436.059 345.354 431.23 349.308 423.956C353.333 416.55 354.154 408.815 351.77 400.752ZM447.88 344.031L432.569 348.558L457.467 432.766L425.315 442.272L400.417 358.065L385.106 362.591L375.6 330.439L390.91 325.912L379.593 287.636L411.745 278.129L423.063 316.406L438.373 311.879L447.88 344.031ZM569.646 399.597L480.079 426.08L470.799 394.694L501.266 328.246L455.181 341.872L445.674 309.72L535.241 283.237L544.368 314.669L513.748 381.162L560.139 367.445L569.646 399.597ZM682.133 303.071C683.793 308.685 684.663 314.255 684.743 319.781L601.3 344.453C609.684 351.409 619.081 353.348 629.492 350.269C637.658 347.855 643.78 342.659 647.859 334.683L677.615 350.858C668.712 366.921 655.84 377.442 638.999 382.421C622.055 387.431 605.847 385.73 590.373 377.319C574.9 368.908 564.659 356.231 559.649 339.287C554.639 322.343 556.34 306.135 564.751 290.662C573.162 275.188 585.839 264.947 602.783 259.937C619.727 254.927 635.935 256.628 651.408 265.039C666.882 273.45 677.123 286.128 682.133 303.071ZM640.328 297.951C632.149 290.934 622.803 288.981 612.29 292.089C601.878 295.167 595.047 301.905 591.794 312.301L640.328 297.951ZM813.593 264.202C815.253 269.816 816.123 275.386 816.203 280.912L732.76 305.584C741.144 312.539 750.541 314.478 760.952 311.4C769.118 308.985 775.24 303.79 779.319 295.813L809.075 311.988C800.172 328.051 787.3 338.572 770.459 343.552C753.515 348.562 737.307 346.861 721.833 338.45C706.36 330.039 696.119 317.361 691.109 300.417C686.099 283.474 687.8 267.265 696.211 251.792C704.622 236.319 717.299 226.077 734.243 221.068C751.187 216.058 767.395 217.758 782.868 226.17C798.342 234.581 808.583 247.258 813.593 264.202ZM771.788 259.081C763.609 252.065 754.263 250.111 743.75 253.22C733.339 256.298 726.507 263.035 723.254 273.431L771.788 259.081Z" fill="white"/>
<path d="M262.19 321.943L250.635 424.584L228.7 619.416L190.638 630.829L206.505 489.887L108.408 366.899L146.658 356.513L213.061 438.908L225.043 332.48L262.19 321.943Z" fill="white"/>
</svg>
