<svg width="512" height="512" viewBox="0 0 512 512" fill="none" xmlns="http://www.w3.org/2000/svg">
<g clip-path="url(#clip0_221_14)">
<path d="M266.212 277.027L241.741 494.393L183.073 510.879L207.772 291.483L56.8899 101.883L114.501 86.8233L266.212 277.027Z" fill="#CE3E1E"/>
<path d="M307.737 266.047L283.418 482.066L224.75 498.553L249.298 280.503L98.4153 90.9031L156.026 75.8438L307.737 266.047Z" fill="#D86F1F"/>
<path d="M348.001 254.024L323.645 470.368L266.039 486.974L290.504 269.662L139.621 80.0612L197.233 65.0019L348.001 254.024Z" fill="#D78A19"/>
<path d="M415.001 1.36315L397.241 159.113L363.53 458.553L305.031 476.095L329.418 259.479L178.65 70.4566L237.438 54.4936L339.493 181.128L357.908 17.5563L415.001 1.36315Z" fill="white"/>
</g>
<defs>
<clipPath id="clip0_221_14">
<rect width="512" height="512" fill="white"/>
</clipPath>
</defs>
</svg>
