<svg width="512" height="512" viewBox="0 0 512 512" fill="none" xmlns="http://www.w3.org/2000/svg">
<g clip-path="url(#clip0_221_14)">
<rect width="512" height="512" fill="white"/>
<path d="M221.209 268.344L123.883 516.394L49.6527 517.296L147.888 266.929L30.1291 -3.73744L102.666 -3.2932L221.209 268.344Z" fill="#CE3E1E"/>
<path d="M273.532 268.517L176.809 515.03L102.579 515.932L200.212 267.102L82.4523 -3.56423L154.989 -3.11998L273.532 268.517Z" fill="#D86F1F"/>
<path d="M324.699 267.064L227.83 513.949L154.812 515.326L252.115 267.336L134.356 -3.32973L206.892 -2.88548L324.699 267.064Z" fill="#D78A19"/>
<path d="M483.193 -9.10872L412.56 170.91L278.484 512.621L204.121 514.817L301.112 267.622L183.305 -2.32718L257.511 -2.5751L337.67 178.607L410.91 -8.05526L483.193 -9.10872Z" fill="white"/>
</g>
<defs>
<clipPath id="clip0_221_14">
<rect width="512" height="512" fill="white"/>
</clipPath>
</defs>
</svg>
