<svg width="809" height="693" viewBox="0 0 809 693" fill="none" xmlns="http://www.w3.org/2000/svg">
<path d="M321.125 440.425L288.972 449.932L286.618 441.97C282.361 451.22 272.73 458.064 257.726 462.5C240.986 467.45 225.354 465.634 210.83 457.053C196.305 448.473 186.508 435.608 181.438 418.461C176.398 401.415 177.741 385.312 185.468 370.152C193.165 354.89 205.179 344.845 221.51 340.016C236.31 335.64 248.129 336.197 256.967 341.686L254.568 333.572L286.72 324.065L321.125 440.425ZM271.77 391.752C269.386 383.688 264.506 377.694 257.13 373.771C249.826 369.714 242.142 368.879 234.079 371.263C226.015 373.647 219.971 378.542 215.945 385.948C211.991 393.222 211.206 400.89 213.59 408.954C215.974 417.018 220.818 423.077 228.122 427.133C235.498 431.057 243.218 431.827 251.281 429.443C259.345 427.059 265.354 422.23 269.308 414.956C273.333 407.55 274.154 399.815 271.77 391.752ZM367.88 335.031L352.569 339.558L377.467 423.766L345.315 433.272L320.417 349.065L305.106 353.591L295.6 321.439L310.91 316.912L299.593 278.636L331.745 269.129L343.063 307.406L358.373 302.879L367.88 335.031ZM489.646 390.597L400.079 417.08L390.799 385.694L421.266 319.246L375.181 332.872L365.674 300.72L455.241 274.237L464.368 305.669L433.748 372.162L480.139 358.445L489.646 390.597ZM602.133 294.071C603.793 299.685 604.663 305.255 604.743 310.781L521.3 335.453C529.684 342.409 539.081 344.348 549.492 341.269C557.658 338.855 563.78 333.659 567.859 325.683L597.615 341.858C588.712 357.921 575.84 368.442 558.999 373.421C542.055 378.431 525.847 376.73 510.373 368.319C494.9 359.908 484.659 347.231 479.649 330.287C474.639 313.343 476.34 297.135 484.751 281.662C493.162 266.188 505.839 255.947 522.783 250.937C539.727 245.927 555.935 247.628 571.408 256.039C586.882 264.45 597.123 277.128 602.133 294.071ZM560.328 288.951C552.149 281.934 542.803 279.981 532.29 283.089C521.878 286.167 515.047 292.905 511.794 303.301L560.328 288.951ZM733.593 255.202C735.253 260.816 736.123 266.386 736.203 271.912L652.76 296.584C661.144 303.539 670.541 305.478 680.952 302.4C689.118 299.985 695.24 294.79 699.319 286.813L729.075 302.988C720.172 319.051 707.3 329.572 690.459 334.552C673.515 339.562 657.307 337.861 641.833 329.45C626.36 321.039 616.119 308.361 611.109 291.417C606.099 274.474 607.8 258.265 616.211 242.792C624.622 227.319 637.299 217.077 654.243 212.068C671.187 207.058 687.395 208.758 702.868 217.17C718.342 225.581 728.583 238.258 733.593 255.202ZM691.788 250.081C683.609 243.065 674.263 241.111 663.75 244.22C653.339 247.298 646.507 254.035 643.254 264.431L691.788 250.081Z" fill="white"/>
<path d="M182.19 312.943L170.635 415.584L148.7 610.416L110.638 621.829L126.505 480.887L28.4076 357.899L66.6583 347.513L133.061 429.908L145.043 323.48L182.19 312.943Z" fill="white"/>
</svg>
